<svg width="85" height="75" viewBox="0 0 85 75" fill="none" xmlns="http://www.w3.org/2000/svg">
<rect width="84.1756" height="75.0005" rx="14" fill="#007F5F" fill-opacity="0.1"/>
<path d="M29.4752 17V42.0654C29.4752 42.4725 29.0987 42.8026 28.6344 42.8026H24L42.0876 58.0005L60.1756 42.8026H55.5408C55.0765 42.8026 54.7 42.4725 54.7 42.0654V17H29.4752ZM44.6101 18.4744H46.2917V19.9489H44.6101V18.4744ZM41.2468 18.4744H42.9284V19.9489H41.2468V18.4744ZM37.8835 18.4744H39.5651V19.9489H37.8835V18.4744ZM32.8385 19.9489H31.1569V18.4744H32.8385V19.9489ZM36.2018 19.9489H34.5202V18.4744H36.2018V19.9489ZM42.0876 32.4816C44.6992 32.4949 46.8673 34.253 47.0858 36.5348C47.3042 38.8163 45.501 40.867 42.9284 41.2619V42.8026H41.2468V41.2619C38.8224 40.9005 37.0472 39.0611 37.0427 36.9049H38.7243C38.7243 38.5334 40.2302 39.8537 42.0876 39.8537C43.9454 39.8537 45.4509 38.5334 45.4509 36.9049C45.4509 35.2764 43.9454 33.956 42.0876 33.956C39.4765 33.9427 37.3083 32.1846 37.0899 29.9027C36.871 27.6213 38.6746 25.5705 41.2468 25.1756V23.635H42.9284V25.1756C45.3528 25.537 47.128 27.3765 47.1326 29.5327H45.4509C45.4509 27.9042 43.9454 26.5838 42.0876 26.5838C40.2302 26.5838 38.7243 27.9042 38.7243 29.5327C38.7243 31.1612 40.2302 32.4816 42.0876 32.4816ZM49.655 19.9489H47.9734V18.4744H49.655V19.9489ZM53.0183 19.9489H51.3367V18.4744H53.0183V19.9489Z" fill="#007F5F"/>
</svg>
